<svg width="60" height="40" viewBox="0 0 60 40" fill="none" xmlns="http://www.w3.org/2000/svg">
<g clip-path="url(#clip0_15_278)">
<path d="M51.8032 6.38294C52.237 4.12279 50.9755 1.89113 48.9856 1.39839C46.9957 0.905642 45.0309 2.33841 44.597 4.59856C44.1632 6.8587 45.4247 9.09037 47.4146 9.58311C49.4045 10.0759 51.3693 8.64309 51.8032 6.38294Z" fill="#F6EE89"/>
<path d="M41.0527 19.1362C41.0468 19.0707 41.0435 19.0043 41.0435 18.9369C41.0435 18.8494 41.0506 18.7637 41.0606 18.6794L38.9398 16.893L39.5849 15.087L42.065 17.1759C42.2697 17.0756 42.4949 17.0194 42.7318 17.0194H48.5993L51.0741 11.71C51.3676 11.0803 51.9397 10.6894 52.5671 10.6894C52.8403 10.6894 53.1132 10.7665 53.356 10.9126C54.1786 11.4072 54.4936 12.5698 54.0581 13.5044L52.1814 17.5308C52.6571 18.8399 53.094 20.2385 53.3543 21.6321L47.9523 23.8892C47.3691 24.1329 46.9161 24.6644 46.7184 25.3325V26.7118H46.3223L45.4072 29.9062V40.1883C46.222 40.1311 46.962 39.5213 47.23 38.5862L50.3003 27.8672L51.4027 27.4066L49.5825 39.8454L50.4719 40.0133L50.8723 37.2767H58.7104L59.1109 40.0133L60.0002 39.8454L58.0784 26.7118H58.8345C59.1651 26.7118 59.4356 26.4047 59.4356 26.0292C59.4356 25.6537 59.1651 25.3465 58.8345 25.3465H56.3336L57.0163 25.0613C57.1582 25.0019 57.2902 24.9256 57.4126 24.8368C58.4182 24.2973 59.2418 23.2832 59.173 21.134C58.7621 16.9967 58.0415 14.6772 56.2071 11.3054C54.8601 8.86219 52.7125 8.54255 51.4284 9.28832C51.2378 9.3989 51.0752 9.54765 50.9338 9.72041C50.9167 9.7407 50.9003 9.76155 50.8841 9.78315C50.7507 9.95944 50.6379 10.1583 50.551 10.3791L47.7917 15.7049H42.7318C42.7164 15.7049 42.7014 15.7069 42.6862 15.7075L41.9283 13.7673C41.9011 13.6976 41.8385 13.6528 41.7724 13.6567L40.8801 13.6937C40.8437 13.6794 40.8032 13.6785 40.7652 13.6956L40.7583 13.6987L39.522 13.7501C39.4676 13.7524 39.4177 13.7851 39.3889 13.8376C39.3601 13.8901 39.356 13.9553 39.3781 14.0119L39.4836 14.2822L38.8911 14.5534C38.8451 14.5745 38.81 14.618 38.7956 14.672C38.7811 14.726 38.7888 14.7845 38.8169 14.831L39.0004 15.1376L38.5697 15.6291C38.5069 15.7008 38.5059 15.8164 38.5676 15.8893L38.8323 16.2028L38.6721 16.6509C38.7074 16.8354 38.7388 17.0223 38.7669 17.2115L41.0527 19.1362ZM57.1643 26.7118L58.6082 36.5786H50.9744L52.376 27L53.0657 26.7118H57.1643ZM38.9154 15.7626L39.0409 15.6192L38.9677 15.8246L38.9154 15.7626ZM39.2025 14.8124L39.341 14.7491L39.2363 14.8686L39.2025 14.8124ZM39.7762 14.1122L39.8629 14.1087L39.7882 14.1429L39.7762 14.1122ZM39.7739 14.7828L40.0539 14.4633L41.6767 16.3853L39.7739 14.7828ZM40.3566 14.284L40.7652 14.097L42.1494 16.4074L40.3566 14.284ZM41.137 14.0556L41.6736 14.0333L42.7042 16.6716L41.137 14.0556Z" fill="#F6EE89"/>
<path d="M48.0296 20.1961V20.4262H49.6157C50.1014 20.4262 50.5473 20.1212 50.7745 19.6337L53.7248 13.3041C54.0636 12.5771 53.8196 11.6759 53.1795 11.2911C52.5394 10.9061 51.746 11.1835 51.4072 11.9104L48.8262 17.4475H42.7317C42.0075 17.4475 41.4204 18.1144 41.4204 18.9368C41.4204 19.4676 41.6656 19.9323 42.0336 20.1961H48.0296Z" fill="#F6EE89"/>
<path d="M14.924 7.73531C16.0198 5.78515 15.5162 3.19529 13.7992 1.95071C12.0822 0.706121 9.80202 1.2781 8.70625 3.22826C7.61047 5.17842 8.11406 7.76827 9.83105 9.01286C11.548 10.2574 13.8282 9.68547 14.924 7.73531Z" fill="#F6EE89"/>
<path d="M18.5795 18.9369C18.5795 18.1144 17.9924 17.4475 17.2683 17.4475H11.1738L8.5929 11.9105C8.2541 11.1835 7.46047 10.9059 6.82058 11.2911C6.18053 11.6759 5.93631 12.5771 6.27527 13.3041L9.22557 19.6337C9.45291 20.1212 9.89874 20.4262 10.3844 20.4262H11.8066V20.1961H17.9665C18.3343 19.9323 18.5795 19.4676 18.5795 18.9369Z" fill="#F6EE89"/>
<path d="M0.889353 40.0133L1.28977 37.2767H9.12791L9.52833 40.0133L10.4177 39.8454L8.59751 27.4066L9.69994 27.8672L12.7702 38.5862C13.02 39.4583 13.6804 40.0474 14.4291 40.1693V29.3338L13.6779 26.7117H13.2818V25.3324C13.0841 24.6642 12.6311 24.1327 12.0479 23.889L6.64589 21.632C6.90633 20.2382 7.34331 18.8397 7.8188 17.5306L5.94208 13.5042C5.50658 12.5697 5.8216 11.4071 6.64425 10.9124C6.88699 10.7663 7.1599 10.6892 7.43313 10.6892C8.06072 10.6892 8.63275 11.0803 8.92614 11.7098L11.401 17.0192H17.2685C17.5051 17.0192 17.7305 17.0754 17.9352 17.1757L20.4153 15.0868L21.0604 16.8928L18.9396 18.6792C18.9496 18.7637 18.9567 18.8492 18.9567 18.9367C18.9567 19.0041 18.9534 19.0705 18.9475 19.1361L21.3577 17.1059C21.4177 17.0555 21.44 16.965 21.412 16.8864L21.1676 16.2025L21.4323 15.889C21.4939 15.816 21.493 15.7004 21.4302 15.6287L20.9994 15.1371L21.183 14.8306C21.2109 14.7841 21.2188 14.7256 21.2043 14.6716C21.1899 14.6177 21.1548 14.5743 21.1088 14.5531L20.5162 14.2818L20.6218 14.0115C20.6439 13.9549 20.6398 13.8898 20.611 13.8373C20.5821 13.7849 20.5323 13.752 20.4779 13.7498L19.2417 13.6984L19.2348 13.6952C19.197 13.6781 19.1565 13.6788 19.1201 13.6934L18.2276 13.6563C18.1613 13.6526 18.099 13.6973 18.0718 13.7669L17.3139 15.7071C17.2986 15.7065 17.2837 15.7045 17.2683 15.7045H12.2084L9.44917 10.3791C9.36213 10.1579 9.24937 9.95889 9.11562 9.78241C9.09988 9.76137 9.08382 9.74089 9.0671 9.72116C8.92549 9.54803 8.76257 9.39909 8.57178 9.28833C7.28774 8.54274 5.14009 8.86238 3.79311 11.3054C1.95867 14.6772 1.23814 16.9967 0.827232 21.134C0.758556 23.2836 1.58235 24.2975 2.58807 24.8372C2.71051 24.926 2.84229 25.0021 2.98423 25.0615L3.6669 25.3467H1.1657C0.8351 25.3467 0.564655 25.6539 0.564655 26.0294C0.564655 26.4049 0.8351 26.712 1.1657 26.712H1.9218L0 39.8454L0.889353 40.0133ZM20.2119 14.1429L20.1371 14.1087L20.2238 14.1122L20.2119 14.1429ZM20.7639 14.8684L20.6592 14.7489L20.7977 14.8122L20.7639 14.8684ZM21.0324 15.8246L20.9591 15.6192L21.0847 15.7626L21.0324 15.8246ZM18.8631 14.0556L17.2957 16.6722L18.3265 14.0335L18.8631 14.0556ZM19.2348 14.097L19.6435 14.2841L17.8506 16.4074L19.2348 14.097ZM19.9462 14.4633L20.2261 14.7828L18.3235 16.3855L19.9462 14.4633ZM6.93436 26.7118L7.62408 27L9.0258 36.5786H1.39189L2.83573 26.7118H6.93436Z" fill="#F6EE89"/>
<path d="M12.2982 20.7546V22.6162H13.7734V26.1534H14.9207V39.9295H17.0789L18.1954 26.1534H42.351L43.4677 39.9295H44.9155V26.1534H46.2267V22.6162H47.538V20.7546H12.2982Z" fill="#F6EE89"/>
<path d="M24.5637 19.7147H29.6448V20.087H24.5637V19.7147Z" fill="#F6EE89"/>
<path d="M26.715 18.9467H31.796V19.319H26.715V18.9467Z" fill="#F6EE89"/>
<path d="M30.1913 19.7147H35.2724V20.087H30.1913V19.7147Z" fill="#F6EE89"/>
</g>
<defs>
<clipPath id="clip0_15_278">
<rect width="60" height="40" fill="white"/>
</clipPath>
</defs>
</svg>
