<svg width="48" height="48" viewBox="0 0 48 48" fill="none" xmlns="http://www.w3.org/2000/svg">
<g clip-path="url(#clip0_15_242)">
<path d="M24.9136 43.2054V30.0114H20.5798C20.343 32.5592 18.1339 34.6921 15.4528 34.6921C12.7716 34.6921 10.5625 32.5592 10.3256 30.0114H7.04854C3.18866 30.0046 0.0540693 33.1282 0.0472412 36.9881V36.9951V43.5656H24.9405C24.9198 43.4467 24.9108 43.326 24.9136 43.2054Z" fill="#F6EE89"/>
<path d="M32.7882 38.1643H32.912L32.8501 37.9503L32.7882 38.1643Z" fill="#F6EE89"/>
<path d="M11.5632 26.5029V29.5187C11.5632 31.6857 13.3199 33.4423 15.4868 33.4423C17.6538 33.4423 19.4104 31.6857 19.4104 29.5187V26.4831C18.1951 27.0249 16.8816 27.3113 15.5511 27.325C15.5267 27.325 15.4946 27.325 15.4696 27.325C14.1243 27.3273 12.7935 27.0473 11.5632 26.5029Z" fill="#F6EE89"/>
<path d="M20.6333 26.0063C21.0409 25.6128 21.593 25.1729 22.1008 24.6801C21.6459 25.103 21.1549 25.4855 20.6333 25.8229V26.0063Z" fill="#F6EE89"/>
<path d="M23.8945 13.7605L23.9346 12.8716C23.963 10.9298 23.0723 9.14861 21.5063 8.10728C21.0067 7.76903 20.4499 7.52414 19.8629 7.38452C15.6193 14.761 8.50588 16.1372 6.97721 16.3578V17.6104C6.96365 22.2868 10.7437 26.0888 15.4203 26.1024H15.4399H15.4919C20.139 26.0682 23.8945 22.2076 23.8945 17.4965V13.7605Z" fill="#F6EE89"/>
<path d="M9.18871 25.0326C8.99131 24.8651 8.80318 24.6896 8.6174 24.5053C6.77576 22.6847 5.74391 20.1999 5.7543 17.6104V16.0118C5.75063 15.5606 6.10834 15.1893 6.5594 15.1761C7.04103 15.131 14.6895 14.2919 18.995 6.41175C19.1154 6.18897 19.3614 6.06444 19.6122 6.09919C20.5278 6.23106 21.4014 6.56971 22.1665 7.08946C24.0801 8.36213 25.1895 10.5305 25.155 12.89L25.1174 13.7694V17.4961C25.1282 20.0657 24.1331 22.5376 22.3448 24.3829C22.3577 24.37 22.3958 24.3581 22.4082 24.3452C24.5367 22.2192 26.0947 19.9985 27.0389 17.7444C28.3033 14.7259 28.3663 11.494 27.216 8.64371C26.5638 7.02872 25.2145 5.45827 23.3792 5.89353C23.0711 5.9666 22.7582 5.79233 22.658 5.4919L22.6021 5.32405C21.7533 3.33383 20.3541 1.79792 18.5547 0.882555C16.6728 -0.0754107 14.4519 -0.260278 12.3015 0.361075C8.71299 1.39812 5.75879 3.79161 4.19557 6.92773C3.27399 8.79984 2.83984 10.8742 2.93319 12.9588C3.13223 17.7755 5.52368 22.2881 9.18871 25.0326Z" fill="#F6EE89"/>
<path d="M32.852 31.2394C30.4794 32.338 29.661 34.2005 29.909 35.5847C30.0627 36.4032 30.5541 36.9115 31.1916 36.9115C31.5726 36.9115 32.0278 36.7194 32.4735 36.3705C32.6973 36.1953 33.0123 36.1975 33.2337 36.3756C33.685 36.7389 34.1291 36.9308 34.5178 36.9308C35.1574 36.9308 35.6451 36.4168 35.7907 35.5892C36.0402 34.1871 35.2234 32.3164 32.852 31.2394Z" fill="#F6EE89"/>
<path d="M46.9458 28.8726L45.335 28.4038C45.3342 28.5552 45.3204 28.7063 45.2935 28.8553L42.2463 45.6503C42.0735 46.6003 41.3926 47.3784 40.474 47.6757L41.3977 47.9445C42.1383 48.1588 42.9126 47.7335 43.129 46.9935L47.8972 30.6034C48.1113 29.8628 47.6857 29.0887 46.9458 28.8726Z" fill="#F6EE89"/>
<path d="M39.5889 43.1879V26.1088C39.589 25.3376 38.9639 24.7123 38.1927 24.712H27.5333C26.7619 24.712 26.1366 25.3374 26.1366 26.1087V43.1879C26.1365 43.9593 26.7618 44.5846 27.5332 44.5847H27.5333H38.1927C38.964 44.5844 39.589 43.9592 39.5889 43.1879ZM27.7672 27.1579C27.7672 27.4956 27.4934 27.7694 27.1557 27.7694C26.818 27.7694 26.5442 27.4956 26.5442 27.1579V26.0369C26.5442 25.6991 26.818 25.4254 27.1557 25.4254C27.4934 25.4254 27.7672 25.6991 27.7672 26.0369V27.1579ZM36.995 35.8029C36.7439 37.231 35.7715 38.1554 34.518 38.1554C34.4058 38.1552 34.2937 38.1475 34.1825 38.1325L34.313 38.5866C34.4075 38.9214 34.2126 39.2694 33.8778 39.3639C33.8282 39.3779 33.7772 39.3857 33.7257 39.3873H31.9746C31.7804 39.3825 31.5996 39.2876 31.4854 39.1304C31.3696 38.972 31.3333 38.769 31.3869 38.5801L31.523 38.1096C31.4131 38.1252 31.3022 38.1334 31.1912 38.1342C29.9459 38.1342 28.9705 37.2208 28.7061 35.8073L28.7053 35.8031C28.3657 33.9164 29.412 31.4057 32.5148 30.0496C32.5279 30.0439 32.541 30.0388 32.5544 30.034C32.7446 29.9612 32.9552 29.9612 33.1454 30.034C33.1574 30.0383 33.1691 30.0429 33.1807 30.0478C36.287 31.377 37.3342 33.8964 36.995 35.8029ZM37.5507 43.4637V42.1389C37.5507 41.8011 37.8244 41.5274 38.1621 41.5274C38.4999 41.5274 38.7736 41.8011 38.7736 42.1389V43.4637C38.7736 43.8014 38.4999 44.0752 38.1621 44.0752C37.8244 44.0752 37.5507 43.8014 37.5507 43.4637Z" fill="#F6EE89"/>
<path d="M41.0452 45.4324L44.0953 28.6375C44.2343 27.8799 43.733 27.153 42.9755 27.0137L40.8118 26.619V43.2054C40.7992 44.6519 39.6188 45.8156 38.1723 45.8077H35.3833L39.4196 46.5487C40.1705 46.6936 40.8967 46.2025 41.0416 45.4516C41.0428 45.4452 41.0441 45.4389 41.0452 45.4324Z" fill="#F6EE89"/>
</g>
<defs>
<clipPath id="clip0_15_242">
<rect width="48" height="48" fill="white"/>
</clipPath>
</defs>
</svg>
