<svg width="46" height="46" viewBox="0 0 46 46" fill="none" xmlns="http://www.w3.org/2000/svg">
<path d="M23 0C18.451 0 14.0042 1.34893 10.2219 3.8762C6.43956 6.40347 3.4916 9.99558 1.75078 14.1983C0.00996557 18.401 -0.445511 23.0255 0.441949 27.4871C1.32941 31.9486 3.51995 36.0468 6.73655 39.2634C9.95316 42.48 14.0514 44.6706 18.5129 45.558C22.9745 46.4455 27.599 45.99 31.8017 44.2492C36.0044 42.5084 39.5965 39.5604 42.1238 35.7781C44.6511 31.9958 46 27.549 46 23C45.9931 16.9021 43.5677 11.056 39.2559 6.74411C34.944 2.43225 29.0979 0.00684856 23 0ZM38.2092 24.9167H42.0708C41.8645 26.9758 41.3234 28.9875 40.4687 30.8722L37.133 28.9464C37.6752 27.659 38.0373 26.303 38.2092 24.9167ZM38.2092 21.0833C38.0373 19.697 37.675 18.341 37.1328 17.0535L40.4685 15.1278C41.3232 17.0125 41.8645 19.0242 42.0708 21.0833H38.2092ZM38.547 11.8115L35.2094 13.7377C34.3646 12.627 33.3733 11.6357 32.2625 10.7908L34.1885 7.45296C35.8652 8.66324 37.3368 10.1348 38.547 11.8115ZM28.75 19.1667H22.0417C21.7875 19.1667 21.5437 19.2676 21.364 19.4473C21.1843 19.6271 21.0833 19.8708 21.0833 20.125C21.0833 20.3792 21.1843 20.6229 21.364 20.8026C21.5437 20.9824 21.7875 21.0833 22.0417 21.0833H23.9583C25.1466 21.0821 26.293 21.5225 27.1748 22.319C28.0567 23.1154 28.6111 24.2112 28.7306 25.3934C28.85 26.5757 28.5258 27.7602 27.8211 28.7169C27.1163 29.6736 26.0812 30.3344 24.9167 30.5708V32.5833H21.0833V30.6667H17.25V26.8333H23.9583C24.2125 26.8333 24.4563 26.7324 24.636 26.5526C24.8157 26.3729 24.9167 26.1292 24.9167 25.875C24.9167 25.6208 24.8157 25.3771 24.636 25.1973C24.4563 25.0176 24.2125 24.9167 23.9583 24.9167H22.0417C20.8534 24.9179 19.707 24.4775 18.8252 23.681C17.9433 22.8845 17.3889 21.7888 17.2694 20.6066C17.15 19.4243 17.4742 18.2398 18.1789 17.2831C18.8837 16.3264 19.9188 15.6656 21.0833 15.4292V13.4167H24.9167V15.3333H28.75V19.1667ZM24.9167 7.79077V3.92917C26.9758 4.13546 28.9875 4.67661 30.8722 5.53126L28.9465 8.86722C27.659 8.32494 26.303 7.96272 24.9167 7.79077ZM21.0833 7.79077C19.697 7.96272 18.341 8.32494 17.0535 8.86722L15.1278 5.5315C17.0125 4.67677 19.0242 4.13554 21.0833 3.92917V7.79077ZM21.0833 38.2092V42.0708C19.0242 41.8645 17.0125 41.3234 15.1278 40.4687L17.0535 37.133C18.341 37.6752 19.697 38.0373 21.0833 38.2092ZM24.9167 38.2092C26.303 38.0373 27.659 37.675 28.9465 37.1328L30.8722 40.4685C28.9875 41.3232 26.9758 41.8644 24.9167 42.0708V38.2092ZM11.8115 7.45296L13.7377 10.7906C12.627 11.6354 11.6357 12.6267 10.7908 13.7375L7.45297 11.8115C8.66325 10.1348 10.1348 8.66324 11.8115 7.45296ZM7.79078 21.0833H3.92918C4.13547 19.0242 4.67662 17.0125 5.53127 15.1278L8.86723 17.0535C8.32495 18.341 7.96273 19.697 7.79078 21.0833ZM7.79078 24.9167C7.96273 26.303 8.32495 27.659 8.86723 28.9464L5.53151 30.8722C4.67678 28.9875 4.13555 26.9758 3.92918 24.9167H7.79078ZM7.45297 34.1885L10.7906 32.2616C11.6354 33.3723 12.6267 34.3636 13.7375 35.2084L11.8115 38.547C10.1348 37.3367 8.66325 35.8652 7.45297 34.1885ZM34.1905 38.5463L32.2635 35.2087C33.3742 34.3638 34.3655 33.3725 35.2104 32.2618L38.548 34.1888C37.3374 35.8654 35.8655 37.3369 34.1885 38.547L34.1905 38.5463Z" fill="#F6EE89"/>
</svg>
