<svg width="50" height="50" viewBox="0 0 50 50" fill="none" xmlns="http://www.w3.org/2000/svg">
<path d="M29.5478 19.1866L29.1091 17.4906C28.7547 17.6341 28.3666 17.71 27.97 17.71H22.9412C22.3169 17.71 21.7347 17.5328 21.2369 17.2291L20.7391 19.1866C20.6716 19.4397 20.7306 19.7097 20.8909 19.9122C21.0512 20.1231 21.2959 20.2413 21.5575 20.2413H28.7294C28.9909 20.2413 29.2356 20.1231 29.3959 19.9122C29.5562 19.7097 29.6069 19.4397 29.5478 19.1866ZM18.6803 9.86313V9.63532L16.2334 12.9934C16.0478 13.255 16.0225 13.5925 16.1659 13.8709C16.3094 14.1578 16.6047 14.335 16.9169 14.335H19.4566C19.1191 13.2803 18.7816 11.7869 18.6803 9.86313ZM34.6103 12.9934L32.155 9.61844V9.86313C32.0453 11.7869 31.7163 13.2803 31.3788 14.335H33.9269C34.2391 14.335 34.5344 14.1578 34.6778 13.8709C34.8213 13.5925 34.7959 13.255 34.6103 12.9934ZM8.42875 4.28594C8.33594 3.98219 8.06594 3.75438 7.75375 3.71219L5.90594 3.44219L5.0875 1.77157C4.80062 1.19782 3.85562 1.19782 3.56875 1.77157L2.75031 3.44219L0.902499 3.71219C0.590312 3.75438 0.320312 3.98219 0.227499 4.28594C0.126249 4.58969 0.210624 4.92719 0.438437 5.14657L1.77156 6.45438L1.45937 8.28532C1.40031 8.60594 1.53531 8.92657 1.78844 9.11219C2.05 9.29782 2.39594 9.32313 2.68281 9.17969L4.32812 8.31063L5.97344 9.17969C6.1 9.23876 6.235 9.27251 6.37 9.27251C6.54719 9.27251 6.71594 9.22188 6.86781 9.11219C7.12094 8.92657 7.25594 8.60594 7.19687 8.28532L6.88469 6.45438L8.21781 5.14657C8.44562 4.92719 8.53 4.58969 8.42875 4.28594ZM41.335 4.28594C41.2422 3.98219 40.9722 3.75438 40.66 3.71219L38.8122 3.44219L37.9938 1.77157C37.7069 1.19782 36.7619 1.19782 36.475 1.77157L35.6566 3.44219L33.8088 3.71219C33.4966 3.75438 33.2266 3.98219 33.1338 4.28594C33.0325 4.58969 33.1169 4.92719 33.3447 5.14657L34.6778 6.45438L34.3656 8.28532C34.3066 8.60594 34.4416 8.92657 34.6947 9.11219C34.9563 9.29782 35.3022 9.32313 35.5891 9.17969L37.2344 8.31063L38.8797 9.17969C39.0063 9.23876 39.1412 9.27251 39.2762 9.27251C39.4534 9.27251 39.6222 9.22188 39.7741 9.11219C40.0272 8.92657 40.1622 8.60594 40.1031 8.28532L39.7909 6.45438L41.1241 5.14657C41.3519 4.92719 41.4362 4.58969 41.335 4.28594ZM14.335 15.2547C14.2422 14.9509 13.9722 14.7231 13.66 14.6809L11.8122 14.4109L10.9937 12.7403C10.7069 12.1666 9.76187 12.1666 9.475 12.7403L8.65656 14.4109L6.80875 14.6809C6.49656 14.7231 6.22656 14.9509 6.13375 15.2547C6.0325 15.5584 6.11687 15.8959 6.34469 16.1153L7.67781 17.4231L7.36562 19.2541C7.30656 19.5747 7.44156 19.8953 7.69469 20.0809C7.95625 20.2666 8.30219 20.2919 8.58906 20.1484L10.2344 19.2794L11.8797 20.1484C12.0062 20.2075 12.1412 20.2413 12.2762 20.2413C12.4534 20.2413 12.6222 20.1906 12.7741 20.0809C13.0272 19.8953 13.1622 19.5747 13.1031 19.2541L12.7909 17.4231L14.1241 16.1153C14.3519 15.8959 14.4363 15.5584 14.335 15.2547ZM49.7725 12.7234C49.6797 12.4197 49.4097 12.1919 49.0975 12.1497L47.2497 11.8797L46.4313 10.2091C46.1444 9.63532 45.1994 9.63532 44.9125 10.2091L44.0941 11.8797L42.2463 12.1497C41.9341 12.1919 41.6641 12.4197 41.5713 12.7234C41.47 13.0272 41.5544 13.3647 41.7822 13.5841L43.1153 14.8919L42.8031 16.7228C42.7441 17.0434 42.8791 17.3641 43.1322 17.5497C43.3938 17.7353 43.7397 17.7606 44.0266 17.6172L45.6719 16.7481L47.3172 17.6172C47.4438 17.6763 47.5787 17.71 47.7137 17.71C47.8909 17.71 48.0597 17.6594 48.2116 17.5497C48.4647 17.3641 48.5997 17.0434 48.5406 16.7228L48.2284 14.8919L49.5616 13.5841C49.7894 13.3647 49.8737 13.0272 49.7725 12.7234ZM26.0969 0.775942C25.8859 0.674692 25.6581 0.632505 25.4134 0.640942C25.1856 0.640942 24.9494 0.68313 24.7384 0.775942C21.6334 2.22719 20.1737 6.93532 20.3678 10.6225C20.5534 14.1578 21.5828 16.0056 21.7009 16.2081C21.9372 16.6131 22.3844 16.8663 22.9412 16.8663H27.97C28.4509 16.8663 28.8981 16.6131 29.1344 16.2081C29.2441 16.0056 30.2819 14.1578 30.4675 10.6225C30.6616 6.93532 29.2019 2.22719 26.0969 0.775942ZM25.4219 10.7913C24.4937 10.7913 23.7344 10.0319 23.7344 9.10376C23.7344 8.17563 24.4937 7.41626 25.4219 7.41626C26.35 7.41626 27.1094 8.16719 27.1094 9.10376C27.1094 10.0403 26.35 10.7913 25.4219 10.7913ZM49.4266 26.1897L49.3422 26.1138L45.6803 23.3125L45.4103 23.1184L44.9209 23.2534L43.2588 23.7091L27.1347 28.1303L26.3584 28.3413V29.6238L29.0162 32.0369L29.9275 32.8553C30.1553 33.0578 30.4844 33.1253 30.7966 33.0325L49.0722 27.4469C49.4941 27.3119 49.6037 26.9913 49.6291 26.8563C49.6628 26.7297 49.6797 26.4428 49.4266 26.1897ZM31.3281 34.5006C31.0581 34.585 30.7881 34.6272 30.5181 34.6272C29.8684 34.6272 29.2272 34.3909 28.7462 33.9522L26.3584 31.7922V48.5659C26.3584 48.9878 25.9788 49.3338 25.5147 49.3338C25.0506 49.3338 24.6709 48.9878 24.6709 48.5659V32.2647L23.2534 33.8425C22.7641 34.3825 22.0469 34.6778 21.3044 34.6778C21.0597 34.6778 20.815 34.6441 20.5703 34.5766L6.10844 30.5941V41.6556C6.10844 41.9678 6.31937 42.2463 6.63156 42.3728L24.6709 49.1228L25.1941 49.3084C25.2953 49.3506 25.405 49.3675 25.5147 49.3675C25.6244 49.3675 25.7341 49.3506 25.8353 49.3084L26.3584 49.1228L44.3978 42.3728C44.71 42.2463 44.9209 41.9678 44.9209 41.6556V30.3409L31.3281 34.5006ZM31.2269 19.1106C31.3028 19.7603 31.1341 20.4269 30.7291 20.95C30.4338 21.3297 30.0541 21.6081 29.6237 21.7684C29.6237 21.8191 29.6406 21.8697 29.6406 21.9288V22.9413C29.6406 23.4053 29.2609 23.785 28.7969 23.785C28.3328 23.785 27.9531 23.4053 27.9531 22.9413V21.9288H26.1897C26.2403 22.03 26.2656 22.1481 26.2656 22.2663V23.6163C26.2656 24.0803 25.8859 24.46 25.4219 24.46C24.9578 24.46 24.5781 24.0803 24.5781 23.6163V22.2663C24.5781 22.1481 24.6034 22.03 24.6541 21.9288H22.8906V22.9413C22.8906 23.4053 22.5109 23.785 22.0469 23.785C21.5828 23.785 21.2031 23.4053 21.2031 22.9413V21.9034C20.5534 21.8191 19.9628 21.4816 19.5578 20.95C19.1866 20.4775 19.0094 19.8869 19.0347 19.2963L6.72437 22.3675C6.72437 22.3675 6.69906 22.3759 6.69062 22.3759L6.75812 22.3928L9.93062 23.1691L25.4978 26.9659H25.5147L40.1791 22.9413L43.1659 22.1228L43.225 22.0975L31.2269 19.1106ZM23.9875 28.1894L7.01969 24.055L6.10844 23.8441L5.2225 23.6247C5.2225 23.6247 5.21406 23.6247 5.20562 23.6416L1.50156 26.4597C1.15562 26.7297 1.18937 27.0672 1.21469 27.2022C1.24 27.3034 1.3075 27.5059 1.51 27.6494H1.51844C1.51844 27.6494 1.55219 27.6747 1.5775 27.6831C1.59437 27.6831 1.61969 27.7 1.63656 27.7084L6.10844 28.9488V28.9741L17.5413 32.1297L18.8828 32.5009L21.0428 33.1084H21.0597C21.2622 33.1591 21.4731 33.1422 21.6588 33.0663C21.7094 33.0409 21.76 33.0156 21.8106 32.9734H21.8191C21.8697 32.9397 21.9119 32.9059 21.9541 32.8553L22.6797 32.0453L22.8147 31.8934L22.9666 31.7247L23.11 31.5644L24.6709 29.8684V28.3581L23.9875 28.1894Z" fill="#F6EE89"/>
</svg>
