<svg width="20" height="21" viewBox="0 0 20 21" fill="none" xmlns="http://www.w3.org/2000/svg">
<path d="M0.54072 17.3485C-0.18024 18.0695 -0.18024 19.2383 0.54072 19.9593C1.26168 20.6802 2.43062 20.6802 3.15158 19.9593L0.54072 17.3485ZM8.38227 14.7285C9.10326 14.0075 9.10326 12.8387 8.38227 12.1177C7.66129 11.3967 6.49255 11.3967 5.77149 12.1177L8.38227 14.7285ZM16.3077 8.50003C16.3077 10.8791 14.3791 12.8077 12 12.8077V16.5001C16.4182 16.5001 20 12.9183 20 8.50003H16.3077ZM12 12.8077C9.62092 12.8077 7.6923 10.8791 7.6923 8.50003H3.99999C3.99999 12.9183 7.58178 16.5001 12 16.5001V12.8077ZM7.6923 8.50003C7.6923 6.12094 9.62092 4.19232 12 4.19232V0.5C7.58178 0.5 3.99999 4.08172 3.99999 8.50003H7.6923ZM12 4.19232C14.3791 4.19232 16.3077 6.12094 16.3077 8.50003H20C20 4.08172 16.4182 0.5 12 0.5V4.19232ZM3.15158 19.9593L8.38227 14.7285L5.77149 12.1177L0.54072 17.3485L3.15158 19.9593Z" fill="white"/>
</svg>
