<svg width="48" height="48" viewBox="0 0 48 48" fill="none" xmlns="http://www.w3.org/2000/svg">
<g clip-path="url(#clip0_15_257)">
<path d="M15.0125 22.9741V25.8778H32.9874V22.9741L33.964 22.0725C33.6602 20.7495 31.7772 18.5474 29.4481 17.4778C29.4198 20.4585 26.9873 22.8749 24 22.8749C20.9951 22.8749 18.5506 20.4303 18.5506 17.4254V16.8567C16.2335 15.4603 14.4922 13.2021 13.7729 10.5291L11.4577 8.72033L10.8581 8.25195L5.19751 13.9125L15.0125 22.9741Z" fill="#F6EE89"/>
<path d="M36.7104 19.537L42.8025 13.9126L37.1419 8.25195L35.8744 9.24223C36.8993 10.7365 37.5205 12.4807 37.6622 14.3215C37.8017 16.1331 37.4683 17.9236 36.7104 19.537Z" fill="#F6EE89"/>
<path d="M31.7105 15.5336C32.8008 16.0308 33.726 16.7739 34.4276 17.692C35.1576 15.6463 34.9754 13.3597 33.9311 11.4541C33.3784 12.9434 32.5 14.2754 31.3827 15.3636C31.5019 15.4311 31.6134 15.4894 31.7105 15.5336Z" fill="#F6EE89"/>
<path d="M21.4399 18.0562C21.7234 19.2066 22.7634 20.0625 24.0001 20.0625C25.2367 20.0625 26.2767 19.2066 26.5602 18.0562C25.7401 18.2606 24.8826 18.3698 24.0001 18.3698C23.1175 18.3698 22.2601 18.2606 21.4399 18.0562Z" fill="#F6EE89"/>
<path d="M31.6199 9.33995C31.251 9.38139 30.8792 9.40314 30.5057 9.40314C28.1076 9.40314 25.818 8.53754 24.031 6.98907C22.244 8.53754 19.9543 9.40314 17.5563 9.40314C17.1613 9.40314 16.7683 9.37857 16.3787 9.33226C17.1001 12.8794 20.243 15.5573 24 15.5573C27.7542 15.5574 30.8956 12.8834 31.6199 9.33995Z" fill="#F6EE89"/>
<path d="M22.9588 4.08611C23.226 3.77121 23.618 3.58971 24.0311 3.58971C24.4442 3.58971 24.8361 3.7713 25.1034 4.08611C26.4542 5.67799 28.4233 6.59102 30.5059 6.59102C30.8975 6.59102 31.2865 6.5583 31.6693 6.49511C31.0546 2.81646 27.8505 0.00311279 24 0.00311279C20.153 0.00311279 16.9513 2.81139 16.3326 6.48508C16.7348 6.55502 17.144 6.59102 17.5563 6.59102C19.6388 6.59102 21.608 5.67799 22.9588 4.08611Z" fill="#F6EE89"/>
<path d="M1.53446 10.5306L3.12952 12.0033L8.62533 6.50755L6.41836 4.7833C4.88265 3.58339 2.6438 3.76518 1.32155 5.19721C0.637645 5.93802 0.283176 6.90074 0.323395 7.90808C0.363614 8.91543 0.793739 9.84683 1.53446 10.5306Z" fill="#F6EE89"/>
<path d="M46.4656 10.5307C47.2063 9.84685 47.6364 8.91544 47.6766 7.908C47.7168 6.90066 47.3624 5.93794 46.6786 5.19722C45.3563 3.76519 43.1175 3.58341 41.5818 4.78322L39.3749 6.50738L44.8706 12.0031L46.4656 10.5307Z" fill="#F6EE89"/>
<path d="M47.8368 45.9333L43.8279 38.3565L47.8379 30.7465C48.0676 30.3106 48.0524 29.7863 47.7979 29.3644C47.5434 28.9426 47.0865 28.6848 46.5939 28.6848H1.40626C0.913605 28.6848 0.456761 28.9426 0.20223 29.3644C-0.0523014 29.7863 -0.0674889 30.3106 0.162199 30.7465L4.17217 38.3565L0.16323 45.9333C-0.0673014 46.3691 -0.0528639 46.894 0.201574 47.3164C0.456011 47.7389 0.913136 47.9972 1.40626 47.9972H46.5938C47.0869 47.9972 47.544 47.7389 47.7985 47.3164C48.0528 46.894 48.0673 46.3691 47.8368 45.9333ZM22.1275 36.2478L19.9631 41.5406C19.7469 42.0693 19.2325 42.4145 18.6616 42.4145H18.6549C18.0815 42.4118 17.5671 42.0611 17.355 41.5283L16.5107 39.4069L15.6204 41.5482C15.4023 42.0729 14.8898 42.4145 14.322 42.4145C14.319 42.4145 14.3161 42.4145 14.313 42.4145C13.7417 42.4109 13.2294 42.0619 13.0167 41.5317L10.8973 36.2452C10.6083 35.5244 10.9584 34.7057 11.6793 34.4166C12.4003 34.1278 13.2189 34.4777 13.5079 35.1986L14.3457 37.2885C14.3457 37.2885 15.2434 35.1305 15.2446 35.1278C15.4613 34.616 15.999 34.2645 16.5547 34.2706C17.1069 34.2766 17.6345 34.6356 17.8422 35.1474C17.8434 35.1502 18.6794 37.2499 18.6794 37.2499L19.5246 35.1834C19.8186 34.4645 20.6395 34.1202 21.3585 34.4141C22.0771 34.7079 22.4215 35.529 22.1275 36.2478ZM27.1107 40.9656C27.1107 41.7423 26.4811 42.3719 25.7045 42.3719C24.9279 42.3719 24.2982 41.7423 24.2982 40.9656V35.7215C24.2982 34.9449 24.9279 34.3153 25.7045 34.3153C26.4811 34.3153 27.1107 34.9449 27.1107 35.7215V40.9656ZM36.2418 42.2539C35.6583 42.4775 35.0034 42.3127 34.5732 41.8341L32.3765 39.3843V41.0052C32.3765 41.7818 31.7469 42.4114 30.9702 42.4114C30.1936 42.4114 29.564 41.7818 29.564 41.0052V35.7095C29.564 35.1268 29.9233 34.6044 30.4676 34.3962C31.0119 34.1879 31.6283 34.3369 32.0172 34.7707L34.3479 37.3699L34.327 35.7173C34.3173 34.9407 34.9389 34.3033 35.7156 34.2934C35.7216 34.2934 35.7277 34.2933 35.7336 34.2933C36.502 34.2933 37.1297 34.9113 37.1394 35.682L37.2038 40.8088C37.2038 40.8147 37.2039 40.8205 37.2039 40.8264C37.2038 41.4695 36.8261 42.0299 36.2418 42.2539Z" fill="#F6EE89"/>
</g>
<defs>
<clipPath id="clip0_15_257">
<rect width="48" height="48" fill="white"/>
</clipPath>
</defs>
</svg>
